HIERARCHY
ROOT Hips
{
	OFFSET 0.000000 0.000000 0.000000
	CHANNELS 6 Xposition Yposition Zposition Zrotation Yrotation Xrotation 
	JOINT LHipJoint
	{
		OFFSET 0.000000 0.000000 0.000000
		CHANNELS 3 Zrotation Yrotation Xrotation
		JOINT LeftUpLeg
		{
			OFFSET 1.363060 -1.794630 0.839290
			CHANNELS 3 Zrotation Yrotation Xrotation
			JOINT LeftLeg
			{
				OFFSET 2.448110 -6.726130 0.000000
				CHANNELS 3 Zrotation Yrotation Xrotation
				JOINT LeftFoot
				{
					OFFSET 2.562200 -7.039590 0.000000
					CHANNELS 3 Zrotation Yrotation Xrotation
					JOINT LeftToeBase
					{
						OFFSET 0.157640 -0.433110 2.322550
						CHANNELS 3 Zrotation Yrotation Xrotation
						End Site
						{
							OFFSET 0.000000 0.000000 0.000000
						}
					}
				}
			}
		}
	}
	JOINT RHipJoint
	{
		OFFSET 0.000000 0.000000 0.000000
		CHANNELS 3 Zrotation Yrotation Xrotation
		JOINT RightUpLeg
		{
			OFFSET -1.305520 -1.794630 0.839290
			CHANNELS 3 Zrotation Yrotation Xrotation
			JOINT RightLeg
			{
				OFFSET -2.542530 -6.985550 0.000000
				CHANNELS 3 Zrotation Yrotation Xrotation
				JOINT RightFoot
				{
					OFFSET -2.568260 -7.056230 0.000000
					CHANNELS 3 Zrotation Yrotation Xrotation
					JOINT RightToeBase
					{
						OFFSET -0.164730 -0.452590 2.363150
						CHANNELS 3 Zrotation Yrotation Xrotation
						End Site
						{
							OFFSET 0.000000 0.000000 0.000000
						}
					}
				}
			}
		}
	}
	JOINT LowerBack
	{
		OFFSET 0.000000 0.000000 0.000000
		CHANNELS 3 Zrotation Yrotation Xrotation
		JOINT Spine
		{
			OFFSET 0.028270 2.035590 -0.193380
			CHANNELS 3 Zrotation Yrotation Xrotation
			JOINT Spine1
			{
				OFFSET 0.056720 2.048850 -0.042750
				CHANNELS 3 Zrotation Yrotation Xrotation
				JOINT Neck
				{
					OFFSET 0.000000 0.000000 0.000000
					CHANNELS 3 Zrotation Yrotation Xrotation
					JOINT Neck1
					{
						OFFSET -0.054170 1.746240 0.172020
						CHANNELS 3 Zrotation Yrotation Xrotation
						JOINT Head
						{
							OFFSET 0.104070 1.761360 -0.123970
							CHANNELS 3 Zrotation Yrotation Xrotation
							End Site
							{
								OFFSET 0.000000 0.000000 0.000000
							}
						}
					}
				}
				JOINT LeftShoulder
				{
					OFFSET 0.000000 0.000000 0.000000
					CHANNELS 3 Zrotation Yrotation Xrotation
					JOINT LeftArm
					{
						OFFSET 3.362410 1.200890 -0.311210
						CHANNELS 3 Zrotation Yrotation Xrotation
						JOINT LeftForeArm
						{
							OFFSET 4.983000 -0.000000 -0.000000
							CHANNELS 3 Zrotation Yrotation Xrotation
							JOINT LeftHand
							{
								OFFSET 3.483560 -0.000000 -0.000000
								CHANNELS 3 Zrotation Yrotation Xrotation
								JOINT LeftFingerBase
								{
									OFFSET 0.000000 0.000000 0.000000
									CHANNELS 3 Zrotation Yrotation Xrotation
									JOINT LeftHandIndex1
									{
										OFFSET 0.715260 -0.000000 -0.000000
										CHANNELS 3 Zrotation Yrotation Xrotation
										End Site
										{
											OFFSET 0.000000 0.000000 0.000000
										}
									}
								}
								JOINT LThumb
								{
									OFFSET 0.000000 0.000000 0.000000
									CHANNELS 3 Zrotation Yrotation Xrotation
									End Site
									{
										OFFSET 0.000000 0.000000 0.000000
									}
								}
							}
						}
					}
				}
				JOINT RightShoulder
				{
					OFFSET 0.000000 0.000000 0.000000
					CHANNELS 3 Zrotation Yrotation Xrotation
					JOINT RightArm
					{
						OFFSET -3.136600 1.374050 -0.404650
						CHANNELS 3 Zrotation Yrotation Xrotation
						JOINT RightForeArm
						{
							OFFSET -5.241900 -0.000000 -0.000000
							CHANNELS 3 Zrotation Yrotation Xrotation
							JOINT RightHand
							{
								OFFSET -3.444170 -0.000000 -0.000000
								CHANNELS 3 Zrotation Yrotation Xrotation
								JOINT RightFingerBase
								{
									OFFSET 0.000000 0.000000 0.000000
									CHANNELS 3 Zrotation Yrotation Xrotation
									JOINT RightHandIndex1
									{
										OFFSET -0.622530 -0.000000 -0.000000
										CHANNELS 3 Zrotation Yrotation Xrotation
										End Site
										{
											OFFSET 0.000000 0.000000 0.000000
										}
									}
								}
								JOINT RThumb
								{
									OFFSET 0.000000 0.000000 0.000000
									CHANNELS 3 Zrotation Yrotation Xrotation
									End Site
									{
										OFFSET 0.000000 0.000000 0.000000
									}
								}
							}
						}
					}
				}
			}
		}
	}
}
MOTION
Frames: 8
Frame Time: 0.008333
7.318129 18.393821 7.619689 179.629156 33.298044 178.510073 -2.456859 1.983294 2.557350 -13.861792 -14.877353 -0.320306 3.718454 12.421559 39.629207 4.330521 -13.023639 48.043993 1.043600 6.496600 18.232400 0.603093 -1.441971 1.137014 16.044192 -1.549323 -13.487967 -1.997619 -9.497747 28.394061 -0.616518 1.748350 5.972226 -0.491500 4.494900 -12.473400 2.695427 4.280160 9.434210 0.921799 6.239986 2.566508 -3.798373 3.293815 -2.092085 -3.355095 11.297657 -10.991909 4.095032 24.704608 36.588865 6.826300 10.427100 18.924400 -6.283437 -2.280029 -1.080224 -82.569666 -1.390147 17.294003 15.221923 -21.485982 -3.403973 -1.250434 -2.630226 5.519085 17.425508 25.791600 9.036500 -7.125000 0.000000 0.000000 -13.977100 59.212800 -4.912800 5.450994 0.241634 -1.378020 79.212412 -7.121789 22.124625 -17.410405 25.775639 -4.292481 0.380512 -0.082183 5.624866 -15.161752 6.966007 -1.941900 7.125000 0.000000 0.000000 8.222200 -22.737900 4.449800 
7.242840 18.373770 7.684051 179.455441 33.969738 178.573261 -2.498521 2.032421 2.627376 -14.165563 -14.562416 0.369708 3.525094 12.166428 38.513271 4.717441 -11.117460 49.033564 1.381700 7.437900 21.019400 0.591883 -1.436344 1.111666 15.823913 -0.906397 -14.008104 -2.021020 -9.577999 28.587139 -0.634548 1.833197 6.026655 -0.426300 4.190300 -11.612700 2.410709 4.225367 9.173731 0.915016 6.120343 2.481554 -3.610148 3.214137 -2.121243 -3.562930 11.131888 -11.182018 4.223499 24.495135 36.806443 6.936900 10.288600 19.101000 -6.266248 -2.286891 -1.089803 -82.466015 -1.513859 17.678672 15.383494 -21.715321 -3.487125 -1.239165 -2.592435 5.128264 17.616318 25.243511 8.969000 -7.125000 0.000000 0.000000 -13.400500 58.675600 -4.532300 5.444031 0.244202 -1.388274 78.986266 -7.584434 22.083524 -17.236314 25.552775 -4.210587 0.379107 -0.082237 5.847458 -15.098073 6.860182 -1.904000 7.125000 0.000000 0.000000 8.273600 -22.849900 4.456700 
7.163841 18.358231 7.745505 179.212027 34.571459 178.578070 -2.539211 2.067669 2.700096 -14.569780 -14.181084 1.000385 3.302185 11.883747 37.396589 4.897722 -9.926217 49.362330 1.681800 8.169100 23.228900 0.580614 -1.428290 1.087477 15.510932 -0.392356 -14.543166 -2.047044 -9.658847 28.786793 -0.668605 2.016657 6.069046 -0.355100 3.828500 -10.594800 2.110077 4.130896 8.933057 0.889332 5.946353 2.382668 -3.448962 3.110335 -2.198926 -3.692779 11.062250 -11.092098 4.246841 24.336803 36.820848 6.931400 10.206900 19.081200 -6.253338 -2.283872 -1.102154 -82.424844 -1.447647 18.207636 15.555044 -21.965591 -3.576428 -1.257971 -2.586421 3.852248 18.526826 24.835772 9.338800 -7.125000 0.000000 0.000000 -12.082900 58.460300 -4.015200 5.430202 0.240136 -1.395286 78.806980 -8.066320 21.863543 -17.060632 25.329445 -4.128798 0.374700 -0.093552 6.219433 -15.012460 7.036821 -1.943400 7.125000 0.000000 0.000000 8.331200 -22.662500 4.524500 
7.078526 18.338081 7.803151 179.027557 35.065042 178.531741 -2.572296 2.106785 2.772185 -15.017296 -13.957444 1.748647 3.078240 11.600890 36.337204 4.900050 -8.899451 48.961880 2.059700 8.989200 25.761700 0.569349 -1.422249 1.064509 15.246817 -0.216053 -15.071309 -2.069219 -9.726498 28.951618 -0.712461 2.258033 6.148121 -0.298300 3.511900 -9.707400 1.948930 3.962397 8.749586 0.833035 5.698974 2.329532 -3.415743 2.979266 -2.204179 -3.579360 11.083893 -11.040756 4.170328 24.207290 36.750638 6.845400 10.155700 19.066700 -6.230012 -2.295381 -1.102892 -82.235376 -1.525480 18.211246 15.831767 -22.365679 -3.716076 -1.215692 -2.626745 4.621972 17.830719 25.618754 9.194200 -7.125000 0.000000 0.000000 -13.411000 59.116700 -4.678300 5.414868 0.234171 -1.397862 78.719203 -8.458730 21.806533 -16.926869 25.156625 -4.066059 0.379008 -0.093233 6.397573 -15.121452 6.913464 -1.923900 7.125000 0.000000 0.000000 8.253100 -22.786900 4.457500 
6.989903 18.318832 7.866510 179.016394 35.496457 178.619077 -2.594656 2.125765 2.853724 -15.298143 -13.740280 2.372626 2.800197 11.282793 35.333016 4.723520 -9.888868 48.398265 1.843800 8.532800 24.344400 0.555246 -1.407535 1.029562 15.192113 -0.154730 -15.675353 -2.081064 -9.772505 29.055352 -0.741405 2.410322 6.262184 -0.320100 3.636500 -10.056200 1.892656 3.844485 8.637698 0.850182 5.532498 2.294309 -3.323003 2.886667 -2.218489 -3.539481 10.998185 -11.122397 4.005312 23.986111 36.703727 6.744400 10.036100 19.131600 -6.200306 -2.316086 -1.104051 -82.189569 -1.736143 18.353515 16.108509 -22.742328 -3.855651 -1.236326 -2.537621 5.133477 18.134742 24.790584 9.083200 -7.125000 0.000000 0.000000 -12.550400 58.293000 -4.123000 5.404405 0.232807 -1.403614 78.493100 -8.885395 21.689281 -16.939282 25.181027 -4.073765 0.374759 -0.080515 6.366974 -14.937504 6.597662 -1.810300 7.125000 0.000000 0.000000 8.404900 -23.129200 4.474500 
6.896868 18.301889 7.932677 178.952022 35.786815 178.667474 -2.619471 2.135644 2.931184 -15.607404 -13.742200 2.982617 2.488018 10.930385 34.314651 4.460454 -12.156190 47.914619 1.236700 7.052000 19.869500 0.542620 -1.390971 0.996367 15.086742 -0.079997 -16.234459 -2.089611 -9.810822 29.135222 -0.759343 2.502303 6.273890 -0.364400 3.877600 -10.732400 1.864469 3.695267 8.583947 0.894760 5.327860 2.246369 -3.202472 2.773488 -2.289450 -3.691409 10.902911 -11.146181 3.822224 23.834352 36.651294 6.662900 9.920900 19.145100 -6.174588 -2.333121 -1.110662 -82.347555 -1.933636 18.349153 16.411442 -23.139981 -4.007515 -1.221424 -2.496350 5.340966 18.104074 24.354748 8.916000 -7.125000 0.000000 0.000000 -12.343500 57.813900 -3.910900 5.386501 0.234367 -1.411036 78.109548 -9.428389 21.743668 -17.036411 25.319916 -4.121371 0.372379 -0.070651 6.080773 -14.810407 6.445507 -1.751100 7.125000 0.000000 0.000000 8.507400 -23.297200 4.497100 
6.800526 18.279834 7.990623 178.726726 35.993084 178.531642 -2.649813 2.166280 2.992099 -16.119011 -14.004774 3.820098 2.223617 10.600994 33.285932 4.224533 -12.980099 47.021022 1.098100 6.658800 18.708400 0.532755 -1.383760 0.974945 14.774401 0.033570 -16.605698 -2.088476 -9.832862 29.157760 -0.779516 2.607616 6.220011 -0.369300 3.903300 -10.804700 1.794015 3.475031 8.493073 0.896159 5.030960 2.242733 -3.128004 2.619238 -2.245603 -3.903911 10.861418 -11.320167 3.825888 23.757478 36.688075 6.706300 9.826800 19.201000 -6.163212 -2.346752 -1.112233 -82.438714 -2.243067 18.430435 16.607814 -23.390795 -4.105545 -1.219835 -2.500244 5.409873 18.152029 24.462904 8.971700 -7.125000 0.000000 0.000000 -12.360100 57.936500 -3.952900 5.372530 0.242023 -1.413874 77.764721 -9.832193 21.723394 -17.059289 25.363123 -4.133096 0.376750 -0.076067 5.861345 -14.925331 6.653397 -1.823700 7.125000 0.000000 0.000000 8.410600 -23.074000 4.488400 
6.706088 18.261588 8.046263 178.405713 36.369781 178.382659 -2.684484 2.192051 3.042415 -16.727786 -14.073464 4.575285 1.994077 10.281284 32.239937 4.017771 -12.696563 45.771634 1.260000 7.115600 20.058300 0.523517 -1.375271 0.952513 14.365490 0.345352 -16.968338 -2.077545 -9.841672 29.132728 -0.799268 2.690213 6.336156 -0.325100 3.664800 -10.135400 1.540944 3.281906 8.279100 0.856771 4.752021 2.290717 -3.013141 2.479461 -2.041435 -3.892248 10.845397 -11.696732 3.725123 23.645576 36.717969 6.690000 9.715200 19.371700 -6.146737 -2.377843 -1.101734 -82.301521 -2.728636 18.660352 16.780506 -23.618200 -4.194959 -1.227742 -2.512199 5.283673 18.364407 24.676396 9.151400 -7.125000 0.000000 0.000000 -12.242600 58.207400 -3.994700 5.372811 0.243491 -1.412901 77.552233 -9.925151 21.472143 -16.974204 25.260846 -4.092315 0.383922 -0.086774 5.790718 -15.131469 6.931448 -1.929800 7.125000 0.000000 0.000000 8.242500 -22.771000 4.454700 
